<?xml version="1.0" encoding="UTF-8"?>
<svg id="Ebene_1" data-name="Ebene 1" xmlns="http://www.w3.org/2000/svg" viewBox="0 0 269.29 183.05">
  <defs>
    <style>
      .cls-1 {
        fill: #b90e5a;
      }

      .cls-2 {
        fill: #0e0e09;
      }

      .cls-3 {
        fill: #8d1060;
      }
    </style>
  </defs>
  <g>
    <g>
      <path class="cls-2" d="M0,182.74v-14.87h1.35v14.87H0Z"/>
      <path class="cls-2" d="M10.7,182.74v-14.8h4.64c3.33.02,6.14.8,6.14,4.55,0,2.69-1.85,4.45-5.2,4.55h-2.35v5.7h-3.23ZM13.93,174.58c1.79-.08,4.12.54,4.12-2.09s-2.33-2.01-4.12-2.09v4.18Z"/>
      <path class="cls-2" d="M26.02,172.45l.06,1.87h.04c.67-1.62,2-2.03,3.56-1.99v2.73h-1.35c-.52.04-1.21.33-1.52.76-.33.57-.39,1.15-.42,1.83v5.11h-3.1l-.02-8.24c0-.43-.06-1.29-.1-2.05h2.85Z"/>
      <path class="cls-2" d="M34.26,178.41c0,1.33.19,2.58,1.79,2.58,1.08,0,1.62-.39,1.91-1.33h2.81c-.27,2.54-2.29,3.38-4.73,3.38-3.58,0-5.02-1.99-5.02-5.43,0-3.1,1.83-5.48,5.02-5.48,1.96,0,3.58.66,4.45,2.46.29.58.44,1.19.52,1.85.08.64.08,1.29.08,1.97h-6.85ZM37.89,176.36c0-1.13-.31-2.17-1.83-2.17-1.44,0-1.75,1.05-1.79,2.17h3.62Z"/>
      <path class="cls-2" d="M43.09,182.74v-14.8h4.64c3.33.02,6.14.8,6.14,4.55,0,2.69-1.85,4.45-5.2,4.55h-2.35v5.7h-3.23ZM46.32,174.58c1.79-.08,4.12.54,4.12-2.09s-2.33-2.01-4.12-2.09v4.18Z"/>
      <path class="cls-2" d="M58.41,172.45l.06,1.87h.04c.67-1.62,2-2.03,3.56-1.99v2.73h-1.35c-.52.04-1.21.33-1.52.76-.33.57-.39,1.15-.42,1.83v5.11h-3.1l-.02-8.24c0-.43-.06-1.29-.1-2.05h2.85Z"/>
      <path class="cls-2" d="M66.66,178.41c0,1.33.19,2.58,1.79,2.58,1.08,0,1.62-.39,1.91-1.33h2.81c-.27,2.54-2.29,3.38-4.73,3.38-3.58,0-5.02-1.99-5.02-5.43,0-3.1,1.83-5.48,5.02-5.48,1.96,0,3.58.66,4.45,2.46.29.58.44,1.19.52,1.85.08.64.08,1.29.08,1.97h-6.85ZM70.28,176.36c0-1.13-.31-2.17-1.83-2.17-1.44,0-1.75,1.05-1.79,2.17h3.62Z"/>
      <path class="cls-2" d="M80.75,175.2c-.04-.7-.71-1.01-1.42-1.01-.85,0-1.25.25-1.25.92,0,1.62,5.97.7,5.97,4.55,0,2.25-2.79,3.38-4.73,3.38-2.44,0-4.56-.94-4.6-3.3h2.89c.06.8.79,1.25,1.71,1.25.85,0,1.5-.35,1.5-1.15s-1.5-1.17-2.12-1.31c-2-.47-3.85-.9-3.85-3.3,0-2.15,2.64-3.1,4.48-3.1,2.21,0,4.08.78,4.23,3.06h-2.81Z"/>
      <path class="cls-2" d="M91.16,175.2c-.04-.7-.71-1.01-1.42-1.01-.85,0-1.25.25-1.25.92,0,1.62,5.97.7,5.97,4.55,0,2.25-2.79,3.38-4.73,3.38-2.44,0-4.56-.94-4.6-3.3h2.89c.06.8.79,1.25,1.71,1.25.85,0,1.5-.35,1.5-1.15s-1.5-1.17-2.12-1.31c-2-.47-3.85-.9-3.85-3.3,0-2.15,2.64-3.1,4.48-3.1,2.21,0,4.08.78,4.23,3.06h-2.81Z"/>
      <path class="cls-2" d="M105.61,174.01c-.92-1.05-1.98-2.21-1.98-3.69,0-1.82,1.64-2.69,3.29-2.69s3.35.8,3.35,2.63-1.44,2.91-2.75,3.89l4.39,4.61c.69-1.54,1.04-3.81.96-5.47h1.46c-.21,2.15-.35,4.49-1.5,6.4l2.85,3.06h-1.94l-1.79-1.97c-1.25,1.46-2.66,2.28-4.6,2.28-3.04,0-5.5-1.66-5.5-4.37,0-2.26,1.98-3.49,3.66-4.59.02-.04.06-.06.08-.08ZM106.46,174.93c-1,.63-3.14,2.17-3.14,3.46,0,2.15,1.89,3.42,3.91,3.42,1.69,0,2.81-.74,3.93-1.91l-4.7-4.98ZM108.81,170.33c0-1-.92-1.47-1.83-1.47-.98,0-1.89.41-1.89,1.47s.94,2.21,1.62,2.96c.85-.82,2.1-1.66,2.1-2.96Z"/>
      <path class="cls-2" d="M123.57,182.74v-14.8h2.16l5.64,12.9,5.77-12.9h2.06v14.8h-1.35v-13.68h-.04l-5.75,13.68h-1.35l-5.74-13.62h-.04v13.62h-1.35Z"/>
      <path class="cls-2" d="M149.86,172.45h1.25v7.98c0,.8.06,1.62.1,2.32h-1.29l-.06-1.52-.04-.04c-.73,1.27-1.92,1.87-3.27,1.87-3.41,0-3.68-2.97-3.68-4.16v-6.44h1.25v6.64c0,1.78,1.04,2.83,2.75,2.83,2.06,0,3-1.7,3-3.55v-5.93Z"/>
      <path class="cls-2" d="M155.71,182.74h-1.25v-14.8h1.25v14.8Z"/>
      <path class="cls-2" d="M159.96,173.58h-2.08v-1.13h2.08v-2.19l1.25-.53v2.73h2.37v1.13h-2.37v6.89c-.02.94.48,1.45,1.44,1.45.38,0,.75-.02,1.08-.12v1.07c-.4.1-.85.18-1.27.18-2.64,0-2.5-1.66-2.5-3.06v-6.42Z"/>
      <path class="cls-2" d="M167.37,169.48h-1.46v-1.54h1.46v1.54ZM167.27,172.45v10.29h-1.25v-10.29h1.25Z"/>
      <path class="cls-2" d="M171.85,173.97l.04.04c.73-1.27,1.92-1.87,3.27-1.87,1.64,0,2.93.9,3.39,2.25.77-1.21,1.98-2.25,3.6-2.25,3.41,0,3.68,2.97,3.68,4.16v6.44h-1.25v-6.64c0-1.78-1.04-2.83-2.75-2.83-2.06,0-3,1.7-3,3.55v5.93h-1.25v-6.64c0-1.78-1.04-2.83-2.75-2.83-2.06,0-3,1.7-3,3.55v5.93h-1.25v-7.98c0-.8-.06-1.62-.11-2.32h1.29l.06,1.52Z"/>
      <path class="cls-2" d="M189.85,177.88c.04,2.19,1.06,4.04,3.62,4.04,1.48,0,2.71-1.05,3.02-2.46h1.31c-.65,2.46-2.21,3.59-4.72,3.59-3.12,0-4.58-2.64-4.58-5.45s1.56-5.46,4.66-5.46c3.5,0,4.77,2.52,4.77,5.74h-8.08ZM196.58,176.75c-.14-1.99-1.23-3.49-3.39-3.49-2.04,0-3.12,1.68-3.29,3.49h6.68Z"/>
      <path class="cls-2" d="M207.9,181.22l-.04-.08c-.86,1.23-2.12,1.91-3.58,1.91-3.1,0-4.29-2.91-4.29-5.5s1.18-5.41,4.29-5.41c1.39,0,2.85.66,3.58,1.87l.04-.04v-6.03h1.25v12.49c0,.8.06,1.62.11,2.32h-1.29l-.06-1.52ZM204.49,173.27c-2.37,0-3.14,2.17-3.14,4.14s.56,4.51,2.96,4.51c2.73,0,3.56-2.23,3.56-4.57,0-2.09-.94-4.08-3.37-4.08Z"/>
      <path class="cls-2" d="M213.65,169.48h-1.46v-1.54h1.46v1.54ZM213.54,172.45v10.29h-1.25v-10.29h1.25Z"/>
      <path class="cls-2" d="M222.81,175.48c-.12-1.68-1-2.21-2.48-2.21-1.31,0-2.4.39-2.56,1.79h-1.33c.31-2.11,1.92-2.91,3.91-2.91,2.31,0,3.75,1.04,3.7,3.41v4.88c-.02.8.06,1.62.1,2.32h-1.29l-.04-1.52h-.04l-.06.14c-.46.86-1.85,1.68-3.27,1.68-1.94,0-3.48-1.17-3.48-3.18,0-1.39.85-2.46,2.1-2.97,1.39-.59,3.2-.39,4.72-.47v-.94ZM219.68,181.92c2.73,0,3.25-2.21,3.12-4.37-1.77.06-5.47-.27-5.47,2.32,0,1.39,1.08,2.05,2.35,2.05Z"/>
      <path class="cls-2" d="M231.61,182.74l5.95-14.8h1.58l6,14.8h-1.48l-1.6-4h-7.47l-1.58,4h-1.39ZM241.58,177.51l-3.25-8.34-3.31,8.34h6.56Z"/>
      <path class="cls-2" d="M258.44,175.2v6.93c-1.81.7-3.46.92-5.39.92-4.1,0-6.41-3.16-6.41-7.71,0-3.81,2.06-7.71,6.41-7.71,2.5,0,5.06,1.33,5.29,3.96h-1.54c-.27-1.89-1.96-2.73-3.75-2.73-3.6,0-4.96,3.4-4.96,6.48,0,3.77,1.6,6.48,5.66,6.48,1.12,0,2.27-.31,3.33-.62v-4.78h-3.77v-1.23h5.12Z"/>
      <path class="cls-2" d="M267.94,182.74v-14.87h1.35v14.87h-1.35Z"/>
    </g>
    <path class="cls-2" d="M92.71,104.79c-28.78,0-52.19-23.5-52.19-52.39S63.94,0,92.71,0s52.19,23.51,52.19,52.4-23.41,52.39-52.19,52.39ZM92.71,20.04c-17.73,0-32.15,14.52-32.15,32.36s14.42,32.36,32.15,32.36,32.15-14.52,32.15-32.36-14.42-32.36-32.15-32.36Z"/>
    <path class="cls-2" d="M60.99,97.62s-6.7-4.35-11.89-10.95c-5.2-6.6-8.23-14.18-8.23-14.18v87.05h20.13v-61.93Z"/>
    <path class="cls-1" d="M208.74,97.62s6.7-4.35,11.89-10.95c5.2-6.6,8.23-14.18,8.23-14.18v87.05h-20.13v-61.93Z"/>
    <rect class="cls-2" x="113.09" y="110.81" width="19.99" height="48.61"/>
    <path class="cls-1" d="M177.06,104.79c-28.78,0-52.19-23.5-52.19-52.39S148.28,0,177.06,0s52.18,23.51,52.18,52.4-23.41,52.39-52.18,52.39ZM177.06,20.04c-17.73,0-32.15,14.52-32.15,32.36s14.42,32.36,32.15,32.36,32.15-14.52,32.15-32.36-14.42-32.36-32.15-32.36Z"/>
    <rect class="cls-1" x="136.7" y="110.81" width="19.98" height="48.61"/>
  </g>
  <path class="cls-3" d="M134.89,83.22c6.29-8.66,10.02-19.3,10.02-30.82s-3.73-22.16-10.02-30.82c-6.29,8.65-10.02,19.3-10.02,30.81h0v.02c0,11.51,3.73,22.15,10.02,30.81Z"/>
</svg>